<svg xmlns="http://www.w3.org/2000/svg" width="89.973" height="130.079" viewBox="0 0 424 613">
  <defs>
    <style>
      .cls-1, .cls-2, .cls-3, .cls-4 {
        fill-rule: evenodd;
      }

      .cls-2 {
        fill: #555;
      }

      .cls-3 {
        fill: #fff;
      }

      .cls-4 {
        fill: #ffc015;
      }
    </style>
  </defs>
  <path id="hayoola-logo-black" class="cls-1" d="M274.393,1h0.925V1.461l1.848,5.074c3.886,5.95,12.606,8.332,17.1,13.837,10.423,12.778,21.127,24.652,29.8,39.437,5.836,9.944,8.054,22.607,20.793,25.6-1.177,3.944-4.63,6.621-6.007,11.3q-2.657,12.683-5.314,25.369c-5.028,16.832-10.979,31.291-20.1,43.818-2.589,3.556-5.057,7.978-8.549,10.609,8.125,18.073,19.3,32.86,30.034,48.2,8.883,12.7,16.569,26.876,23.8,41.051,8.54,16.751,15.3,35.323,21.485,53.966,4.224,12.734,6.181,26.506,9.473,39.9,3.483,14.173,3.589,28.239,6.468,43.358,3.932,20.646,4.851,48.385,4.852,71.191q-0.346,15.911-.693,31.826H37.818v-0.231c3.994-12.777,8.84-50.026,5.776-66.809-1.232-6.75.419-14.533-2.31-20.064l-6.007-5.305c-7.159-6.685-15.748-14.4-19.407-24.215-2.46-6.6-1.53-14.532-2.772-22.14-0.991-6.067-1.643-15.44-.462-21.909V339.1l3-23.754c2.806-13.37,7.437-24.929,11.09-36.67a113.931,113.931,0,0,1,29.341.231c1.978-8.151,8.307-14.863,12.938-20.756,1.127-1.434,3.4-2.861,3.7-4.382-6.834-2.3-12.276-7.822-18.02-11.531l6.7-25.6-27.493-16.6c0.863-3.715,8.76-15.346,11.551-17.067l3.234-1.383c-14.246-6.616-17.324-36.682-27.724-48.893,1.913-3.673,4.644-7,6.238-11.07l2.31-9.686,6.7-16.374L48.677,76.875,53.76,71.11l0.924-5.535h0.231c5.934,2.489,12.151-2.745,19.175-1.614,12.094,1.946,13.769,4.783,19.638,12.684L97.655,80.8c2.242,4.887-2.627,10.863-5.314,12.223H92.111c0.445-1.781,1.665-4.286.231-6-3.683-7.64-15.9,1.948-17.789,5.074-6.42,10.6-5.107,29.909,1.155,38.976,2.308,3.342,5.834,4.869,9.01,7.38,2.123,1.679,2.55,3.929,5.314,5.3l0.924-.23c1.687-3.414,5.633-6.241,8.548-8.533,15.032-11.822,31.81-19.335,54.755-23.755l19.868-1.845h7.162c3.367-1.353,7.339-4.765,10.628-6.688,13.236-7.739,27.3-13.96,44.588-17.527l11.783-1.614c2.372-.181,5.839,5.491,6.931,7.611l1.617-1.384,3.7-6.688c0.616-1.824-.129-3.933.693-6,0.612-1.537,2.526-2.352,3-4.382,1.225-5.212-2.361-9.671-3.927-12.684-5.392-10.373-15.122-22.208-27.262-25.6-2.509-.7-6.888-1.731-10.165-0.922-4.093,1.009-15.3,9.97-13.169,16.6,1.476,4.595,6.443,3.375,8.086,5.766-10,3.365-14.822-.061-21.255-6,1.634-5.724-.057-13.847,2.08-19.834,5.453-15.279,22.112-22.441,39.275-25.83C249.1,2.014,266.148,7.328,274.393,1Z"/>
  <path id="hayoola-logo-grey" class="cls-2" d="M394.529,506H44.518v-0.231c4.168-12.548,3.193-34.342,5.545-49.281q0.115-8.418.231-16.836L48.677,426.04c10.6,5.461,20.531,10.662,33.037,14.991l11.551,2.306c35.374,9.912,87.964,7.037,122.677-.692,12.314-2.742,24.033-4.8,34.654-8.533,2.674-.939,9.243-1.749,10.4-4.151l-33.5,6.688c-17.42,2.849-36.009,3.209-54.754,6.227-9.3,1.5-28.574.781-37.2-.692l-9.241-.231-24.72-3.69c-17.85-4.174-34.512-9.293-48.054-17.758-4.931-3.082-9.012-7.076-13.4-10.609-6.576-5.294-17.612-16.745-20.562-25.138l-0.924-10.839c-2.211-13.607-2.975-31.195-.693-45.2,2.738-16.806,4.026-34.3,11.783-46.356a100.692,100.692,0,0,1,25.413.231v0.231l-1.617,5.3H52.835c-1.634-.771-11.314-3.141-13.169-0.692-1.728,6.94,13.642,17.961,17.1,22.14v0.231l-1.386.461,0.462,0.692c1.4,0.356,1.555.174,3.234,0,6.719,7.735,17.238,12.172,27.493,16.374,14.294,5.857,30.267,9.384,47.592,12.684l21.255,1.845c12.287,1.994,28.994,1.2,40.2-1.153a187.347,187.347,0,0,0,64-26.06c7.665-4.875,30.787-21.123,32.806-29.52,0.894-3.721-3.636-7.281-5.083-9.225-6.434-8.649-12.908-16.573-21.486-23.063-10.08-7.626-20.079-14.288-33.961-18.449-33.984-10.188-73.258,1.076-98.419,11.761-8.827,3.749-18.535,9.14-25.644,14.991-2.3,1.888-3.155,7.03-6.238,7.841-1.077-1.533-6.167-10.9-7.162-11.3l0.231,4.612c-5.04-3.011,4.389-15.074,5.083-21.448l-0.231-.231c-10.227.261-15.516,5.9-22.179,9.687-5.892-3.446-12.672-5.756-16.634-11.07,1.154-7.8,5.127-13.835,5.776-21.91C63.1,212.446,46.042,200.9,39.9,198.875l0.462-.922c5.894-16.663,30.118-18.177,51.058-18.911v-1.153l-0.693-3H90.493q-0.231.921-.462,1.845l-12.245.461v-0.231l4.389-11.531c13.766-23.344,28.281-35.735,56.141-45.2,8.986-3.054,25.3-7.317,37.195-5.766V114.7c-7.4,6.888-18.878,12.568-20.33,25.138,5.177-4.126,8.165-11.014,13.4-15.222,17.894-14.383,47.131-35.344,78.55-35.285l6.238,9.456c4.169,7.1,9.015,21.521,10.165,30.211h0.693v-1.614l0.462,0.231c1.54,9.529,11.643,29.044,16.865,35.746,1.943,2.493,5.246,3.69,7.855,5.535,2.784,1.968,3.975,4.147,6.007,6.919l2.079,0.923q1.619,3.344,3.235,6.688l10.4,17.758C321.6,217.971,333.2,233.879,343.472,251c16.112,26.855,28.525,58.55,37.195,92.481l4.852,25.368c4.068,19.409,4.034,39.395,7.393,59.963q1.04,14.528,2.079,29.058C396.853,469.972,394.585,493.807,394.529,506ZM237.66,120.463l-7.624,1.384-18.252,5.3c-12.739,4.912-23.184,11.862-33.037,19.6l-14.093,15.222c-1.786,2.5-3.465,5.853-4.621,6.918-3.863,3.56-3.107,12.612-7.393,15.683l-0.231.23c-9.377-2.264-7.679-13.506-11.551-15.221v2.768c0.61,1.875,3.7,15.451,3.7,15.451v0.462c-3.982-.679-8.068,1.542-12.244.692l-3.466-1.384c0.5,1.592,3.742,4.389,5.314,4.843,2.834,0.819,5.489-1.193,8.086-1.384l4.39,0.692,0.924-1.384c6.582,3.3,9.241,2.515,13.169-2.537l0.462,0.231c2.759,7.669,18.122,16.871,26.8,19.142,2.3,0.6,11.928,2.349,13.4,0-5.162-.595-13.1-1.886-16.634-4.613,33.206,5.643,56.625-2.525,69.54-23.984,5.679-9.438,8.18-24.454,3-36.439a29.711,29.711,0,0,0-15.479-14.991l-7.624-2.537c6.741-1.564,7.773,1.129,13.4,2.076C246.751,124.115,240.792,120.677,237.66,120.463Zm-12.938,6.919c23.451-.363,39.607,19.182,30.265,42.9-6.739,17.106-19.265,25.9-39.275,29.981-5.444,1.111-12.952,1.883-18.945.923-9.813-1.574-16.87-2.4-23.1-7.15-8.151-6.208-14.294-17.663-7.162-29.058,8.217-13.127,25.737-26.009,40.662-32.518l12.013-4.152ZM258.683,182.5c-2.907,8.194-15.574,19.152-23.565,22.6-2.869,1.239-12.375,2.2-14.324,3.921a5.056,5.056,0,0,0,2.311,2.306c4.164,1.682,10.825-1.605,13.631-2.767,10.047-4.164,21.843-13.06,22.64-26.061h-0.693Zm-130.532,8.072c-1.933,2.607-3.614,4-4.62,7.841l-0.924-.23-6.007-4.613c-7.752-2.2-32.252,2.436-41.355,4.151-6.5,1.225-16.344.282-17.327,6.919,3.989,3.231,6.406,8.806,12.014,10.378v-0.692l-4.852-6,19.407,7.841c5.884,1.256,25.3-10.27,31.42-12.223l-14.555,15.683v0.691c7.051-2.036,12.217-9.4,17.789-13.376l3-3.69c0.9-.321,2.714,1.2,4.159.692l0.924-.461,0.231-7.38c0.519-2,1.493-3.27,1.386-5.535h-0.693Zm-17.558,5.535a10.7,10.7,0,0,1,7.393,3.459h-0.462L86.8,213.174c-2.924.4-22.093-8-23.8-9.686l0.693-.923ZM47.984,199.8l0.693,0.922C48.372,199.838,48.677,200.241,47.984,199.8Zm163.569,8.072-0.231,1.384a18.629,18.629,0,0,0,7.162,2.075v-0.922C217.128,208.426,214.845,207.916,211.553,207.87Z"/>
  <path id="hayoola-logo-white" class="cls-3" d="M244.128,89.329h3l7.393,11.762c2.835,6.41,4.447,13.407,6.931,20.3-1.788-1.087-2.7-3.631-3.928-5.3-3.791-5.175-9.193-12.987-16.172-14.76-7.439-1.889-21.6,4.823-27.261,7.15l-5.545,2.306v-0.231l11.32-7.149,10.859-5.766a147.223,147.223,0,0,0-71.62,51.2c-4.855,6.414-8.335,14.483-13.168,20.756H145.71v-0.461c-4.855-11.172,7.641-26.128,12.013-32.057,13.727-18.612,38.757-34.58,62.609-42.9L236.5,90.252Zm-74.853,25.138h6.237c-1.263,1.572-12.021,11.737-13.4,12.454l-7.855,1.845-15.017,5.765L123.3,143.756l-4.852,3.69,3.465-3.92,9.242-7.15,10.627-6.227c-11.5,3.269-27.485,14.484-34.192,22.832-3.1,3.864-5.975,8.673-9.473,12.223H97.886v-0.23c1.582-3.977,3.947-7.131,6.238-10.378-6.589,5.068-11,13.828-14.324,22.14l-12.014.461v-0.231c3.093-5.341,3.96-11.3,7.162-16.144,13.341-20.181,26.286-30.508,50.6-39.9,6.7-2.59,14.261-3.852,21.948-5.3Zm94.953,12.915,4.39,11.531c3.3,7.745,7.012,15.883,11.551,22.6,3.691,5.464,12.107,7.217,15.017,13.146l0.693,7.149q1.732,8.187,3.466,16.375c4.215,15.041,9.112,28.905,14.093,42.434h-0.231l-0.231-.461c-4.783-4.533-8.812-13.581-11.552-19.834-1.245-2.841-2.04-6.345-4.39-8.071-3.789-2.785-15.749-4.108-21.023-5.305,1.224-11.7,1.951-25.664-1.155-36.208C270.6,156.288,264.244,146.048,264.228,127.382ZM132.772,159.439c1.238,1.615-1.628,8.032-1.155,11.3,0.621,4.289,3.26,5.8,3.465,10.378-6.551,2.144-5.859,3.865-10.858-.922,1.648-2.575,1.247-6.371,2.31-9.917C127.811,166.018,130.557,162.8,132.772,159.439Zm-21.717,14.068q2.541,3.459,5.083,6.919l7.624,4.612a9.071,9.071,0,0,1-2.773,2.767C114.64,186.369,112.39,180.061,111.055,173.507Zm-19.869,5.535c6.2,1.438,10.724.907,14.324,4.612v0.231c-13.356-.171-40.724,2.249-48.978,7.149a27.721,27.721,0,0,0-8.779,9l6.469,7.38L39.9,198.645c7.58-15.382,17.025-15.238,35.81-18.681ZM66,216.4c3.985,1.145,7.225,3.96,9.7,6.688-0.108,11.7-8.032,13.389-2.079,25.369-4.447-1.373-10.36-5.771-12.938-9.225C61.839,234.118,67.668,220.713,66,216.4ZM194,235.083c5.173-.031,14.717-1.333,18.251.923l9.01,13.376c0.493-4.562,1.979-8.639.694-12.684h0.231c2.911,0.775,4.991,1.049,6.931,2.537l2.079,4.151,0.924,5.3v-0.461l2.079-8.072,7.162,3c0.6,7.44-.071,13.255-2.31,18.45l-2.079-2.075c-1.605-.7-2.715-1.613-4.621-2.307h-0.231l-1.617,8.3a42.344,42.344,0,0,0-6.931-1.615l-0.462-6.688-0.462.231c-1.51,3.509-5.432,7.681-8.548,9.686v-0.461c-4.663-4.783-10.028-17.345-12.707-23.985h-0.231c4.2,16.109,11.79,31.983,19.868,44.972,3.61,5.8,11.3,14.735,12.707,21.678,0.653,3.215-.757,5.54-1.155,7.842h0.231v-0.462c5.7-4.773.423-14.856-.693-20.3,7.053-1.658,10.847-5.992,11.32-14.068,6.72,1.554,14.586,9.342,15.71,16.605h0.231c0.166-6.186-1.861-8.468-4.389-11.762a60.49,60.49,0,0,0,2.31-11.531c10.634,1.975,13.522,12.4,20.331,18.22l-1.617,1.845-7.393,6.457-5.314-3.459-1.155,8.994c-2.5,4.114-24.544,14.014-30.5,16.6a186.735,186.735,0,0,1-41.586,13.146c-9.683,1.812-24.258,1.859-34.192.23l-17.558-1.384c-19.409-3.449-42.253-5.85-55.217-15.682l-4.621-6.688v5.3c-8.658-4.1-18.314-10.171-23.8-17.527,1.85-24.612,20.726-52.535,41.355-57.656v0.23c-3.5,9.731-12.371,19.136-9.7,34.594a112.2,112.2,0,0,0,4.621,19.142c0.611,1.686,3.021,4.859,2.31,6.688-1.713,4.41-8.7,5.042-14.093,6v0.231c8.366,0.551,10.211.837,15.479-3.229h0.231a4.937,4.937,0,0,0,2.079,3.69c-0.02-6.956,5.555-12.879,9.7-15.913H106.9c0.028,6.647,3.364,10.323,3.928,15.221,0.218,1.9-2.052,4.77-2.541,7.149l0.462-.23c1.132-5.17,6.88-9.975,11.089-12.223,1.943,1.384,3.2,1,6.007,2.075,2.006,0.772,3.584,2.669,6.007,3.46q-0.924,3.689-1.848,7.38l0.462-.231a12.326,12.326,0,0,1,3.7-6.227c2.985,1.514,7.846.81,11.09,2.306l0.693,1.384c2.68-1.7,6.946-1.31,11.089-1.845v0.461c1.507,3.114.734,10.319,3,12.915-1.859-9.225,1.984-17.427,4.852-23.062l0.462,0.231c1.748,4.425,6.834,12.216,10.859,14.529h0.231l0.924-4.843,0.231,0.461c3.155,3.065,4.42,6.5,9.241,8.072-2.543-2.958-5.559-5.536-7.162-9.456-6.5-15.894,1.623-45.181,6.238-56.5,2.528-6.2,4.226-14.225,10.858-16.374,1.912,0.668,2.4,1.418,3.7,2.537l-3.235-5.766h-0.924c-7.956,7.781-15.376,19.539-17.789,32.518l-0.693-.461c-1.5-3.742-4.332-6.1-5.314-10.839-0.621-3,.214-8.278-1.617-10.148a58.635,58.635,0,0,1-3.235,13.838c-10.552-.515-19.034.914-25.875,4.382-1.922.974-6.427,4.538-8.548,3.228-3.061-1.273-4.477-4.335-6.931-6.226,1.049,2.791,3.1,6.123,3.7,8.533q-0.233,3-.463,6a51.135,51.135,0,0,0,1.387,11.3c-10.727-1.823-12.846-9.923-18.021-17.3-1.513.695-2.811,1.406-3.234,3.228l2.31,1.615v0.23h-1.386l-1.617-.461c-6.155-8.747,8.747-15.979,14.093-19.142A166.88,166.88,0,0,1,167.2,239.235l19.176-3.46Zm50.365,9.225c2.583,0.595,5.6,1.768,7.161,3.46,0.017,2.664-.793,3.8-1.386,5.765l-3.465,1.153q-1.617-2.421-3.235-4.843C243.491,248.1,243.739,245.054,244.36,244.308Zm26.106,25.83c6.994,2.225,10.148,8.535,14.324,13.607-0.792,3.116-4.209,5.017-5.776,7.611l-0.693-.692-7.393-5.305C270.726,280.474,271.194,275.6,270.466,270.138ZM40.129,281.208c5.585-.106,10.959.072,15.017,1.615l-2.079,5.3c-3.086-1.25-9.854-2.676-13.631-.923v0.231c0.795,7.558,11.76,18.763,17.327,21.909l-0.231.462-7.393,2.537-7.624-6.919a83.332,83.332,0,0,1-9.01-12.685c-1.337-2.27-4.328-7-2.772-10.378Zm18.02,29.751a9.691,9.691,0,0,1,5.314,4.151l-6.931,3-5.314-4.151,0.231-.461Zm7.162,6a3.79,3.79,0,0,1,2.31,1.384l-6.931,2.767L59.3,319.953v-0.231Zm152.48,7.38c-6.37,3.234-21.718,2.493-29.572,1.384,5.689,9.063,23.892,1.122,30.5-1.153Z"/>
  <path id="hayoola-logo-eye" class="cls-4" d="M224.26,127.382c25.21-.4,40.257,20.251,30.265,44.28-6.932,16.668-19.8,24.881-39.737,28.828-4.242.839-10.4,1.692-15.248,0.922-11.07-1.755-18.613-1.985-25.645-7.149-7.781-5.715-14.572-18-7.624-29.059,8.223-13.083,25.36-26,40.2-32.518l11.551-4.151Zm-112.281,68.5,6.007,3.69-22.872,9.917c-2.276,1.079-6.71,4.581-10.165,3.69l-10.165-4.382C71.929,207.62,63.5,205.506,63,203.027c3.077-1.613,7.558-1.348,11.551-2.076l27.262-3.921Z"/>
  <path id="hayoola-logo-shadow" class="cls-1" d="M232.8,503.614h19.746c-0.663-2.334.629-5.468,1.12-7.371,1.3-5.029,5.44-15.577,13.024-12.655,4.332,1.669,3.993,8.654,6.022,12.795,3.263,6.658,6.646,7.269,16.945,7.231-2.08-5.381-1.823-16.192.981-20.582q1.119-2.574,2.24-5.146c5.329-8.509,16.844-18.418,30.25-18.636v-0.139c-1.238-2.381-2.724-4.754-3.922-7.371-3.976-8.69-.442-20.649,3.782-26.146,1.865-2.428,7.222-7.2,11.9-4.728,6.618,3.491.185,8.355,2.661,13.49l8.683,4.311c5.388,2.366,11.476,3.806,17.225,5.7,6.9,2.275,14.166,2.932,20.866,5.146,16.01,5.289,33.356,16.219,38.232,31.848,1.817,5.824,1.4,13.788,1.4,21.278a78.238,78.238,0,0,1-.841,13.351c-0.645,3.674-.215,7.133-0.98,10.43-1.3,5.614-3.022,11.015-4.621,15.994-0.923,2.871-2.88,9.189-4.9,10.708-4.206,3.16-26.766,1.948-35.011,1.947H305.2c-12.1,0-26.489,1.366-33.61-3.616a31.95,31.95,0,0,1-3.641-3.615,9.154,9.154,0,0,1-5.462,6.536c-2.658,1.015-6.668.7-10.223,0.7H233.922c0.281,15.8-4.007,32.861-8.542,44.086-1.17,2.895-2.976,10.382-5.182,11.822-2.283,1-5.418.29-8.263,0.695-8.5,1.211-22-1.189-28.568-3.06-11.891-3.383-22.273-6.379-33.191-10.569-8.289-3.182-18.447-7.717-30.949-5.841l-6.3.973-2.941,1.113c0-2.363-4.918-13.928-4.061-16.411,1.38-4,6.324-6.564,9.523-8.9a56.6,56.6,0,0,1,11.9-6.815l9.1-2.5c5.247-1.855,13.652-.2,18.066.973,11.007,2.924,20.138,6.972,33.61,6.954,0.245-4.2,1.33-7.552,1.4-12.239-21.406.349-34.76-8.621-41.592-22.529l-5.742-17.384-1.26-5.7c0.032,4.05-1.068,8.3-1.821,11.821-1.937,9.064-2.368,18.381-5.742,25.45q-1.47,3.755-2.941,7.51c-1.309,1.22-5.422.7-7.842,0.7H46.124c-15.131,0-25.665.562-34.171-5.98-4-3.076-7.115-8.759-9.243-13.629l-1.4-10.569C0.84,522.6-.8,516.691.47,514.6c5.11-2.155,13.784-.94,18.766-3.06,2.783-1.183,6.873-3.8,8.4-6.258l1.26-5.146c3.2-7.417,3.292-16.9,4.9-25.728q0.28-8.066.56-16.132V447.429q-0.14-6.049-.28-12.1c-1.088-6.065-.337-12.691,3.641-14.463,5.053-2.252,13.73,8.118,16.385,10.709,3.732,3.64,11.732,10.721,13.584,15.158,1.122,2.689,1.529,11.739.84,15.716q-0.21,4.936-.42,9.874c-1.324,7.641-.946,15.474-2.381,22.53-0.6,2.952-.337,6.23-1.4,8.761h39.632c-0.047-.092-0.093-0.185-0.14-0.278,2.143-7.016,1.773-15.179,3.221-23.086q0.139-4.728.28-9.457a49.841,49.841,0,0,0-.14-14.185c-1.056-5.777.013-11.723-.98-17.106q-0.28-3.754-.56-7.51c-0.844-5-1.813-11.3,2.38-13.351,5.808-2.84,12.318,4.575,15.405,6.814,5.195,3.768,15.124,12.094,17.085,18.08,2.553,7.789,1.022,17.192,2.661,26.146q0.071,7.3.14,14.6v-0.278c2.519-3.922,3.973-8.067,7.142-11.265,10.9-11,32.375-17.967,54.337-13.49,5.536,1.128,11.927,1.79,15.965,4.589,2.779,1.927,3.379,6.551,4.622,10.014C228.409,482.3,232.027,493.482,232.8,503.614Zm133.181-14.6c1.238,3.626,2.162,10.107.84,14.324h14.424c0.673-2.39,1.887-5.129,1.261-8.483C380,492.158,370.29,490.065,365.983,489.012Zm-36.411,8.622c-3.027,1.128-5.86.884-7.7,3.06,3.95,5.168,11.278,3.638,13.444-2.086A16.122,16.122,0,0,0,329.572,497.634Zm-142.984,7.371q-0.141-1.321-.281-2.642c-2.917-.039-6.342-0.264-8.682.417l0.84,0.973A22.793,22.793,0,0,0,186.588,505.005Zm59.378,63.278c17.226,1.42,27.911,7.77,42.853,11.821,4.822,1.308,14.291-.351,18.066-1.39,1.809-.5,3.984-1.417,5.881-1.391,1.593,0.022,4.447-1.165,6.162-.417,0.262,4.848-1.973,18.227-3.921,21.139l-7.982,4.728c-7.182,4.611-18.483,9.389-31.79,7.232-4.96-.8-9.163-1.555-14.285-2.364-6.68-1.056-14.065,1.381-19.045,1.113q-2.38-7.094-4.762-14.186,0.981-5.77,1.961-11.543c0.653-3.93-.954-10.14.84-13.073Z"/>
  <path id="hayoola-logo-text" class="cls-3" d="M110.684,423.925c3.353,0.274,8.846,6.02,11.344,7.928,4.26,3.253,10.995,8.872,13.024,14.046q0.489,4.034.98,8.066c1.121,6.931,1.12,14.614,1.12,22.391a283.54,283.54,0,0,1-7.282,63.7H57.888c-22.109,0-36.519,2.554-46.074-10.847-1.976-2.772-4.468-5.963-5.182-9.874,11.988,0.1,21.22-3.841,26.048-10.848,2.3-3.343,2.954-11.224,4.061-15.715,4.855-19.7,3.124-43.179,3.081-66.338a99.556,99.556,0,0,1,17.085,16.549c1.717,2.124,4.412,3.956,5.462,6.676,0.939,2.431.355,14.313-.14,17.245l-0.98,16.828c-1.487,8.833-2.662,17.536-3.921,25.867l51.256-.139c0.974-6.421,2.418-13.342,3.641-20.165l1.26-16.967q-0.07-6.049-.14-12.1-0.35-8.622-.7-17.246Q111.664,433.453,110.684,423.925ZM228.6,539.912c0.211,15.886-1.179,32.275-4.9,44.782-1.184,3.979-1.8,7.992-3.641,11.265-25.327,2.07-44.453-3.851-62.6-10.848-12.76-4.919-27.657-11.386-44.814-6.258l0.7-.974,6.3-4.867a46.368,46.368,0,0,1,20.306-7.788c10.909-1.674,21.78,3.406,29.689,5.841,4.143,1.275,8.6,1.3,13.585,2.086l9.943,0.7q0.98-6.813,1.96-13.629c1.107-6.394.706-13.565,0.7-20.444h-0.14c-6.212,1.718-15.386,0-20.446-1.39-16.652-4.574-25.207-13.18-28.569-31.014a40.691,40.691,0,0,1,.981-17.8,36.937,36.937,0,0,1,6.442-11.96c7.953-9.958,28.2-16.008,46.774-12.934,4.654,0.77,13.7,1.749,16.385,4.033l3.5,10.013c3.016,9.433,4.9,20.055,7.142,30.874h22.547c3.774,0,7.226.551,8.543-1.947-1.939-6.08,1.654-16.912,5.181-18.635,2.542,8.158,4.39,13.964,10.784,18.218l3.641,2.364h10.923l8.683-.139v-0.139c-3.707-3.738-4.978-16.159-2.8-22.53,3.985-11.66,13.208-18.728,26.328-21.417a23.168,23.168,0,0,1,7.843-.556c5.169,0.848,9.291,1.57,13.3,3.338,8.29,3.653,20.828,18.641,18.485,32.4a57.1,57.1,0,0,1-2.38,8.622h25.768a34.045,34.045,0,0,0,3.221-7.092c2.261-8.042-1.188-17-5.742-20.583-4.758-3.744-10.881-5.03-17.506-7.093-10.912-3.4-28.852-8.789-35.01-16.411a28.627,28.627,0,0,1-5.742-11.4c-1.926-7.849,1.965-19.553,8.262-20.3v0.139c-3.852,10.132,1.73,13.178,8.823,16.271,10.2,4.451,21.546,6.891,33.47,10.153,18.228,4.986,37.267,13.772,42.714,31.152,0.928,2.962.187,6.539,0.7,10.013q0.069,5.145.14,10.292c-0.736,4.783-.462,9.594-1.541,13.907-1.073,4.292-5.442,18.306-8.122,20.026-2.606,1.673-6.791.975-10.5,1.53l-30.25.139H304.084c-9.721,0-22.885,1.36-29.97-1.669-6.894-2.947-9.7-9.346-12.743-16.132a1.752,1.752,0,0,0-.981.417c-0.4,5.7,3.363,9.46,3.921,14.464a8.839,8.839,0,0,1-3.921,2.5c-2.942.8-7.095,0.417-10.643,0.417H228.6Zm98.73-57.437-4.341.974a14.161,14.161,0,0,0-7.7,7.788c-3.576,8.931,4.336,20.071,13.584,18.636,6.151-.955,10.362-3.994,12.184-9.179C344.528,490.81,336.536,482.423,327.331,482.475Zm-144.1,4.59-4.2.556a12.365,12.365,0,0,0-6.162,3.894,13.092,13.092,0,0,0-1.96,4.311,13.471,13.471,0,0,0,.14,6.676c2.357,8.4,11.093,9.307,21.987,8.2v-1.252c-1.217-5.055-1.211-20.241-4.622-21.973Zm62.039,87.477c22.355-1.656,32.718,15.69,57.417,10.986a61.129,61.129,0,0,0,9.523-2.364c-1.433,2.06-5.234,3.4-7.422,4.729a57.39,57.39,0,0,1-8.543,4.728c-10.587,4.154-25.333,1.645-36.271-.139-3.214-.524-16.293.944-16.665,0.7C245.043,587.9,245.246,581.332,245.266,574.542Z"/>
</svg>
